<?xml version="1.0" encoding="UTF-8" standalone="no"?>
<svg
   xmlns:dc="http://purl.org/dc/elements/1.1/"
   xmlns:cc="http://creativecommons.org/ns#"
   xmlns:rdf="http://www.w3.org/1999/02/22-rdf-syntax-ns#"
   xmlns:svg="http://www.w3.org/2000/svg"
   xmlns="http://www.w3.org/2000/svg"
   viewBox="0 0 963.77332 850.40002"
   height="850.40002"
   width="963.77332"
   xml:space="preserve"
   id="svg2"
   version="1.1"><metadata
     id="metadata8"><rdf:RDF><cc:Work
         rdf:about=""><dc:format>image/svg+xml</dc:format><dc:type
           rdf:resource="http://purl.org/dc/dcmitype/StillImage" /></cc:Work></rdf:RDF></metadata><defs
     id="defs6"><clipPath
       id="clipPath20"
       clipPathUnits="userSpaceOnUse"><path
         id="path18"
         d="M 0,637.8 H 722.83 V 0 H 0 Z" /></clipPath></defs><g
     transform="matrix(1.3333333,0,0,-1.3333333,0,850.4)"
     id="g10"><path
       id="path12"
       style="fill:#ffffff;fill-opacity:0s;fill-rule:nonzero;stroke:none"
       d="M 0.795,0 H 722.83 V 637.8 H 0.795 Z" /><g
       id="g14"><g
         clip-path="url(#clipPath20)"
         id="g16"><path
           id="path22"
           style="fill:none;stroke:#110f0d;stroke-width:1;stroke-linecap:butt;stroke-linejoin:miter;stroke-miterlimit:10;stroke-dasharray:none;stroke-opacity:1"
           d="M 723.625,0 H 0.795 v 637.8 h 722.83 z" /><g
           transform="translate(273.6206,383.2224)"
           id="g24"><path
             id="path26"
             style="fill:#ec1e27;fill-opacity:1;fill-rule:nonzero;stroke:none"
             d="m 0,0 v -130.418 c 0,-39.228 30.564,-71.375 69.118,-74.074 v 45.383 H 58.481 c -10.805,0 -19.562,8.757 -19.562,19.563 0,10.804 8.757,19.562 19.562,19.562 h 10.637 v 34.888 H 47.6 c -10.806,0 -19.563,8.757 -19.563,19.561 0,10.806 8.757,19.563 19.563,19.563 h 21.518 v 35.537 H 58.481 c -10.805,0 -19.562,8.758 -19.562,19.563 0,10.805 8.757,19.562 19.562,19.562 H 69.118 V 74.073 C 30.564,71.375 0,39.228 0,0" /></g><g
           transform="translate(381.8633,457.2951)"
           id="g28"><path
             id="path30"
             style="fill:#ec1e27;fill-opacity:1;fill-rule:nonzero;stroke:none"
             d="m 0,0 v -45.382 h 10.638 c 10.804,0 19.562,-8.758 19.562,-19.563 0,-10.805 -8.758,-19.562 -19.562,-19.562 H 0 v -35.537 h 21.52 c 10.804,0 19.561,-8.758 19.561,-19.563 0,-10.805 -8.757,-19.562 -19.561,-19.562 H 0 v -34.888 h 10.638 c 10.804,0 19.562,-8.757 19.562,-19.562 0,-10.806 -8.758,-19.563 -19.562,-19.563 H 0 v -45.382 c 38.554,2.698 69.118,34.845 69.118,74.073 V -74.073 C 69.118,-34.845 38.554,-2.698 0,0" /></g><g
           transform="translate(490.1064,252.8039)"
           id="g32"><path
             id="path34"
             style="fill:#ec1e27;fill-opacity:1;fill-rule:nonzero;stroke:none"
             d="m 0,0 c 0,-60.8 -48.111,-110.442 -108.243,-113.198 v -33.203 c 0,-10.806 -8.757,-19.563 -19.562,-19.563 -10.805,0 -19.563,8.757 -19.563,19.563 v 33.203 C -207.499,-110.442 -255.61,-60.8 -255.61,0 v 130.418 c 0,60.8 48.111,110.443 108.242,113.198 v 33.203 c 0,10.806 8.758,19.563 19.563,19.563 10.805,0 19.562,-8.757 19.562,-19.563 V 243.616 C -48.111,240.861 0,191.218 0,130.418 Z m -127.805,378.422 c -172.707,0 -313.213,-140.506 -313.213,-313.213 0,-172.707 140.506,-313.213 313.213,-313.213 172.707,0 313.213,140.506 313.213,313.213 0,172.707 -140.506,313.213 -313.213,313.213" /></g></g></g></g></svg>